<svg width="40" height="40" viewBox="0 0 40 40" fill="none" xmlns="http://www.w3.org/2000/svg">
<path d="M39.6875 20C39.6875 26.5 34.4375 31.8125 27.875 31.8125C21.375 31.8125 16.0625 26.5 16.0625 20C16.0625 13.5 21.3125 8.1875 27.8125 8.1875C34.4375 8.1875 39.6875 13.5 39.6875 20Z" fill="#FFB600"/>
<path d="M27.875 8.1875C34.375 8.1875 39.6875 13.5 39.6875 20C39.6875 26.5 34.4375 31.8125 27.875 31.8125C21.375 31.8125 16.0625 26.5 16.0625 20" fill="#F7981D"/>
<path d="M27.875 8.1875C34.375 8.1875 39.6875 13.5 39.6875 20C39.6875 26.5 34.4375 31.8125 27.875 31.8125" fill="#FF8500"/>
<path d="M12 8.1875C5.5625 8.25 0.3125 13.5 0.3125 20C0.3125 26.5 5.5625 31.8125 12.125 31.8125C15.1875 31.8125 17.9375 30.625 20.0625 28.75C20.5 28.375 20.875 27.9375 21.25 27.5H18.8125C18.5 27.125 18.1875 26.6875 17.9375 26.3125H22.125C22.375 25.9375 22.625 25.5 22.8125 25.0625H17.25C17.0625 24.6875 16.875 24.25 16.75 23.8125H23.25C23.625 22.625 23.875 21.375 23.875 20.0625C23.875 19.1875 23.75 18.375 23.625 17.5625H16.375C16.4375 17.125 16.5625 16.75 16.6875 16.3125H23.1875C23.0625 15.875 22.875 15.4375 22.6875 15.0625H17.1875C17.375 14.625 17.625 14.25 17.875 13.8125H22.0625C21.8125 13.375 21.5 12.9375 21.125 12.5625H18.8125C19.1875 12.125 19.5625 11.75 20 11.375C17.9375 9.4375 15.125 8.3125 12.0625 8.3125C12.0625 8.1875 12.0625 8.1875 12 8.1875Z" fill="#FF5050"/>
<path d="M0.3125 20C0.3125 26.5 5.5625 31.8125 12.125 31.8125C15.1875 31.8125 17.9375 30.625 20.0625 28.75C20.5 28.375 20.875 27.9375 21.25 27.5H18.8125C18.5 27.125 18.1875 26.6875 17.9375 26.3125H22.125C22.375 25.9375 22.625 25.5 22.8125 25.0625H17.25C17.0625 24.6875 16.875 24.25 16.75 23.8125H23.25C23.625 22.625 23.875 21.375 23.875 20.0625C23.875 19.1875 23.75 18.375 23.625 17.5625H16.375C16.4375 17.125 16.5625 16.75 16.6875 16.3125H23.1875C23.0625 15.875 22.875 15.4375 22.6875 15.0625H17.1875C17.375 14.625 17.625 14.25 17.875 13.8125H22.0625C21.8125 13.375 21.5 12.9375 21.125 12.5625H18.8125C19.1875 12.125 19.5625 11.75 20 11.375C17.9375 9.4375 15.125 8.3125 12.0625 8.3125H12" fill="#E52836"/>
<path d="M12.125 31.8125C15.1875 31.8125 17.9375 30.625 20.0625 28.75C20.5 28.375 20.875 27.9375 21.25 27.5H18.8125C18.5 27.125 18.1875 26.6875 17.9375 26.3125H22.125C22.375 25.9375 22.625 25.5 22.8125 25.0625H17.25C17.0625 24.6875 16.875 24.25 16.75 23.8125H23.25C23.625 22.625 23.875 21.375 23.875 20.0625C23.875 19.1875 23.75 18.375 23.625 17.5625H16.375C16.4375 17.125 16.5625 16.75 16.6875 16.3125H23.1875C23.0625 15.875 22.875 15.4375 22.6875 15.0625H17.1875C17.375 14.625 17.625 14.25 17.875 13.8125H22.0625C21.8125 13.375 21.5 12.9375 21.125 12.5625H18.8125C19.1875 12.125 19.5625 11.75 20 11.375C17.9375 9.4375 15.125 8.3125 12.0625 8.3125H12" fill="#CB2026"/>
<path d="M16.3125 23L16.5 21.9375C16.4375 21.9375 16.3125 22 16.1875 22C15.75 22 15.6875 21.75 15.75 21.625L16.125 19.4375H16.8125L17 18.25H16.375L16.5 17.5H15.25C15.25 17.5 14.5 21.625 14.5 22.125C14.5 22.875 14.9375 23.1875 15.5 23.1875C15.875 23.1875 16.1875 23.0625 16.3125 23Z" fill="white"/>
<path d="M16.75 21.0001C16.75 22.7501 17.9375 23.1876 18.9375 23.1876C19.875 23.1876 20.25 23.0001 20.25 23.0001L20.5 21.8126C20.5 21.8126 19.8125 22.1251 19.1875 22.1251C17.8125 22.1251 18.0625 21.1251 18.0625 21.1251H20.625C20.625 21.1251 20.8125 20.3126 20.8125 20.0001C20.8125 19.1876 20.375 18.1876 19 18.1876C17.6875 18.0626 16.75 19.4376 16.75 21.0001ZM18.9375 19.1876C19.625 19.1876 19.5 20.0001 19.5 20.0626H18.125C18.125 20.0001 18.25 19.1876 18.9375 19.1876Z" fill="white"/>
<path d="M26.875 23L27.125 21.625C27.125 21.625 26.5 21.9375 26.0625 21.9375C25.1875 21.9375 24.8125 21.25 24.8125 20.5C24.8125 19 25.5625 18.1875 26.4375 18.1875C27.0625 18.1875 27.5625 18.5625 27.5625 18.5625L27.75 17.25C27.75 17.25 27 16.9375 26.3125 16.9375C24.875 16.9375 23.4375 18.1875 23.4375 20.5625C23.4375 22.125 24.1875 23.1875 25.6875 23.1875C26.1875 23.1875 26.875 23 26.875 23Z" fill="white"/>
<path d="M9.4375 18.0625C8.5625 18.0625 7.9375 18.3125 7.9375 18.3125L7.75 19.375C7.75 19.375 8.3125 19.125 9.125 19.125C9.5625 19.125 9.9375 19.1875 9.9375 19.5625C9.9375 19.8125 9.875 19.875 9.875 19.875C9.875 19.875 9.5 19.875 9.3125 19.875C8.25 19.875 7.0625 20.3125 7.0625 21.75C7.0625 22.875 7.8125 23.125 8.25 23.125C9.125 23.125 9.5 22.5625 9.5625 22.5625L9.5 23.0625H10.625L11.125 19.625C11.125 18.125 9.875 18.0625 9.4375 18.0625ZM9.6875 20.875C9.6875 21.0625 9.5625 22.0625 8.8125 22.0625C8.4375 22.0625 8.3125 21.75 8.3125 21.5625C8.3125 21.25 8.5 20.8125 9.4375 20.8125C9.625 20.875 9.6875 20.875 9.6875 20.875Z" fill="white"/>
<path d="M12.3125 23.125C12.625 23.125 14.1875 23.1875 14.1875 21.5C14.1875 19.9375 12.6875 20.25 12.6875 19.625C12.6875 19.3125 12.9375 19.1875 13.375 19.1875C13.5625 19.1875 14.25 19.25 14.25 19.25L14.4375 18.125C14.4375 18.125 14 18 13.25 18C12.3125 18 11.375 18.375 11.375 19.625C11.375 21.0625 12.9375 20.9375 12.9375 21.5C12.9375 21.875 12.5 21.9375 12.1875 21.9375C11.625 21.9375 11.0625 21.75 11.0625 21.75L10.875 22.875C10.9375 23 11.25 23.125 12.3125 23.125Z" fill="white"/>
<path d="M37.25 17.0625L37 18.75C37 18.75 36.5 18.125 35.8125 18.125C34.6875 18.125 33.6875 19.5 33.6875 21.125C33.6875 22.125 34.1875 23.1875 35.25 23.1875C36 23.1875 36.4375 22.6875 36.4375 22.6875L36.375 23.125H37.625L38.5625 17.125L37.25 17.0625ZM36.6875 20.375C36.6875 21.0625 36.375 21.9375 35.6875 21.9375C35.25 21.9375 35 21.5625 35 20.9375C35 19.9375 35.4375 19.3125 36 19.3125C36.4375 19.3125 36.6875 19.625 36.6875 20.375Z" fill="white"/>
<path d="M2.625 23.0625L3.375 18.5625L3.5 23.0625H4.375L6 18.5625L5.3125 23.0625H6.625L7.625 17.0625H5.5625L4.3125 20.75L4.25 17.0625H2.4375L1.4375 23.0625H2.625Z" fill="white"/>
<path d="M22 23.0625C22.375 21 22.4375 19.3125 23.3125 19.625C23.4375 18.8125 23.625 18.5 23.75 18.1875C23.75 18.1875 23.6875 18.1875 23.5 18.1875C22.9375 18.1875 22.5 18.9375 22.5 18.9375L22.625 18.25H21.4375L20.625 23.125H22V23.0625Z" fill="white"/>
<path d="M29.75 18.0625C28.875 18.0625 28.25 18.3125 28.25 18.3125L28.0625 19.375C28.0625 19.375 28.625 19.125 29.4375 19.125C29.875 19.125 30.25 19.1875 30.25 19.5625C30.25 19.8125 30.1875 19.875 30.1875 19.875C30.1875 19.875 29.8125 19.875 29.625 19.875C28.5625 19.875 27.375 20.3125 27.375 21.75C27.375 22.875 28.125 23.125 28.5625 23.125C29.4375 23.125 29.8125 22.5625 29.875 22.5625L29.8125 23.0625H30.9375L31.4375 19.625C31.5 18.125 30.1875 18.0625 29.75 18.0625ZM30.0625 20.875C30.0625 21.0625 29.9375 22.0625 29.1875 22.0625C28.8125 22.0625 28.6875 21.75 28.6875 21.5625C28.6875 21.25 28.875 20.8125 29.8125 20.8125C30 20.875 30 20.875 30.0625 20.875Z" fill="white"/>
<path d="M32.5 23.0625C32.875 21 32.9375 19.3125 33.8125 19.625C33.9375 18.8125 34.125 18.5 34.25 18.1875C34.25 18.1875 34.1875 18.1875 34 18.1875C33.4375 18.1875 33 18.9375 33 18.9375L33.125 18.25H31.9375L31.125 23.125H32.5V23.0625Z" fill="white"/>
<path d="M14.375 22.125C14.375 22.875 14.8125 23.1875 15.375 23.1875C15.8125 23.1875 16.1875 23.0625 16.3125 23L16.5 21.9375C16.4375 21.9375 16.3125 22 16.1875 22C15.75 22 15.6875 21.75 15.75 21.625L16.125 19.4375H16.8125L17 18.25H16.375L16.5 17.5" fill="#DCE5E5"/>
<path d="M17.375 21.0001C17.375 22.7501 17.9375 23.1876 18.9375 23.1876C19.875 23.1876 20.25 23.0001 20.25 23.0001L20.5 21.8126C20.5 21.8126 19.8125 22.1251 19.1875 22.1251C17.8125 22.1251 18.0625 21.1251 18.0625 21.1251H20.625C20.625 21.1251 20.8125 20.3126 20.8125 20.0001C20.8125 19.1876 20.375 18.1876 19 18.1876C17.6875 18.0626 17.375 19.4376 17.375 21.0001ZM18.9375 19.1876C19.625 19.1876 19.75 20.0001 19.75 20.0626H18.125C18.125 20.0001 18.25 19.1876 18.9375 19.1876Z" fill="#DCE5E5"/>
<path d="M26.875 23L27.125 21.625C27.125 21.625 26.5 21.9375 26.0625 21.9375C25.1875 21.9375 24.8125 21.25 24.8125 20.5C24.8125 19 25.5625 18.1875 26.4375 18.1875C27.0625 18.1875 27.5625 18.5625 27.5625 18.5625L27.75 17.25C27.75 17.25 27 16.9375 26.3125 16.9375C24.875 16.9375 24.0625 18.1875 24.0625 20.5625C24.0625 22.125 24.1875 23.1875 25.6875 23.1875C26.1875 23.1875 26.875 23 26.875 23Z" fill="#DCE5E5"/>
<path d="M7.75 19.4375C7.75 19.4375 8.3125 19.1875 9.125 19.1875C9.5625 19.1875 9.9375 19.25 9.9375 19.625C9.9375 19.875 9.875 19.9375 9.875 19.9375C9.875 19.9375 9.5 19.9375 9.3125 19.9375C8.25 19.9375 7.0625 20.375 7.0625 21.8125C7.0625 22.9375 7.8125 23.1875 8.25 23.1875C9.125 23.1875 9.5 22.625 9.5625 22.625L9.5 23.125H10.625L11.125 19.6875C11.125 18.25 9.875 18.1875 9.375 18.1875M10.3125 20.875C10.3125 21.0625 9.5625 22.0625 8.8125 22.0625C8.4375 22.0625 8.3125 21.75 8.3125 21.5625C8.3125 21.25 8.5 20.8125 9.4375 20.8125C9.625 20.875 10.3125 20.875 10.3125 20.875Z" fill="#DCE5E5"/>
<path d="M10.9375 23C10.9375 23 11.3125 23.125 12.375 23.125C12.6875 23.125 14.25 23.1875 14.25 21.5C14.25 19.9375 12.75 20.25 12.75 19.625C12.75 19.3125 13 19.1875 13.4375 19.1875C13.625 19.1875 14.3125 19.25 14.3125 19.25L14.5 18.125C14.5 18.125 14.0625 18 13.3125 18C12.375 18 12.0625 18.375 12.0625 19.625C12.0625 21.0625 13 20.9375 13 21.5C13 21.875 12.5625 21.9375 12.25 21.9375" fill="#DCE5E5"/>
<path d="M37 18.75C37 18.75 36.5 18.125 35.8125 18.125C34.6875 18.125 34.3125 19.5 34.3125 21.125C34.3125 22.125 34.1875 23.1875 35.25 23.1875C36 23.1875 36.4375 22.6875 36.4375 22.6875L36.375 23.125H37.625L38.5625 17.125M36.9375 20.375C36.9375 21.0625 36.375 21.9375 35.6875 21.9375C35.25 21.9375 35 21.5625 35 20.9375C35 19.9375 35.4375 19.3125 36 19.3125C36.4375 19.3125 36.9375 19.625 36.9375 20.375Z" fill="#DCE5E5"/>
<path d="M2.625 23.0625L3.375 18.5625L3.5 23.0625H4.375L6 18.5625L5.3125 23.0625H6.625L7.625 17.0625H6.0625L4.3125 20.75L4.25 17.0625H3.5625L1.4375 23.0625H2.625Z" fill="#DCE5E5"/>
<path d="M20.6875 23.0625H22C22.375 21 22.4375 19.3125 23.3125 19.625C23.4375 18.8125 23.625 18.5 23.75 18.1875C23.75 18.1875 23.6875 18.1875 23.5 18.1875C22.9375 18.1875 22.5 18.9375 22.5 18.9375L22.625 18.25" fill="#DCE5E5"/>
<path d="M28.0625 19.4375C28.0625 19.4375 28.625 19.1875 29.4375 19.1875C29.875 19.1875 30.25 19.25 30.25 19.625C30.25 19.875 30.1875 19.9375 30.1875 19.9375C30.1875 19.9375 29.8125 19.9375 29.625 19.9375C28.5625 19.9375 27.375 20.375 27.375 21.8125C27.375 22.9375 28.125 23.1875 28.5625 23.1875C29.4375 23.1875 29.8125 22.625 29.875 22.625L29.8125 23.125H30.9375L31.4375 19.6875C31.4375 18.25 30.1875 18.1875 29.6875 18.1875M30.625 20.875C30.625 21.0625 29.875 22.0625 29.125 22.0625C28.75 22.0625 28.625 21.75 28.625 21.5625C28.625 21.25 28.8125 20.8125 29.75 20.8125C30 20.875 30.625 20.875 30.625 20.875Z" fill="#DCE5E5"/>
<path d="M31.1875 23.0625H32.5C32.875 21 32.9375 19.3125 33.8125 19.625C33.9375 18.8125 34.125 18.5 34.25 18.1875C34.25 18.1875 34.1875 18.1875 34 18.1875C33.4375 18.1875 33 18.9375 33 18.9375L33.125 18.25" fill="#DCE5E5"/>
</svg>
