<svg width="40" height="25" viewBox="0 0 40 25" fill="none" xmlns="http://www.w3.org/2000/svg">
<g clip-path="url(#clip0_46_601)">
<path d="M40 2.25H0V22.25H40V2.25Z" fill="#F6F6F6"/>
<path fill-rule="evenodd" clip-rule="evenodd" d="M37 2.52867e-07C35 4.41611e-07 13.8252 -4.00796e-07 2 2.52867e-07C1 3.08144e-07 0 1 0 2V5H40C40 5 40 9.64298 40 3C40 1 39 2.52867e-07 37 2.52867e-07Z" fill="#265697"/>
<path fill-rule="evenodd" clip-rule="evenodd" d="M0 20C0 20 2.41593e-07 20 0 22C-1.1571e-07 24 1 25 3 25C14.1558 25 35 25 37 25C39 25 40 24 40 22V20H0Z" fill="#D97B16"/>
<path fill-rule="evenodd" clip-rule="evenodd" d="M27.9036 7.44553C27.343 7.23062 26.4646 7 25.3676 7C22.5716 7 20.6021 8.43878 20.5853 10.5007C20.5695 12.0249 21.9913 12.8752 23.0647 13.3827C24.1661 13.9026 24.5364 14.2342 24.5311 14.6985C24.5241 15.4095 23.6515 15.7344 22.8382 15.7344C21.7057 15.7344 21.104 15.5736 20.1747 15.1776L19.81 15.009L19.4129 17.3836C20.0738 17.6797 21.296 17.9363 22.5649 17.9496C25.5393 17.9496 27.4703 16.5273 27.4922 14.3254C27.5029 13.1187 26.749 12.2003 25.1165 11.4433C24.1275 10.9526 23.5217 10.6251 23.5282 10.1282C23.5282 9.6873 24.0409 9.21582 25.1486 9.21582C26.0739 9.20114 26.7442 9.40732 27.2665 9.62223L27.52 9.74464L27.9036 7.44553Z" fill="#265697"/>
<path fill-rule="evenodd" clip-rule="evenodd" d="M35.1596 7.19434H32.9731C32.2958 7.19434 31.7889 7.38323 31.4914 8.07401L27.289 17.7954H30.2603C30.2603 17.7954 30.7462 16.4883 30.856 16.2013C31.1807 16.2013 34.0673 16.2058 34.4799 16.2058C34.5646 16.5772 34.8242 17.7954 34.8242 17.7954H37.4498L35.1596 7.19434ZM31.6704 14.0316C31.9044 13.4204 32.7977 11.0662 32.7977 11.0662C32.781 11.0945 33.03 10.4521 33.1729 10.0538L33.3642 10.9684C33.3642 10.9684 33.906 13.5005 34.0192 14.0315L31.6704 14.0316Z" fill="#265697"/>
<path fill-rule="evenodd" clip-rule="evenodd" d="M14.8125 17.7924L16.5816 7.18457H19.4113L17.6409 17.7924H14.8125Z" fill="#265697"/>
<path fill-rule="evenodd" clip-rule="evenodd" d="M12.4392 7.19189L9.66889 14.4256L9.37372 12.9556C8.858 11.261 7.25118 9.42495 5.45483 8.50577L7.98793 17.7828L10.9818 17.7793L15.4365 7.19189H12.4392Z" fill="#265697"/>
<path fill-rule="evenodd" clip-rule="evenodd" d="M7.09889 7.18555H2.53611L2.5 7.40625C6.0498 8.2843 8.39867 10.4062 9.37368 12.9558L8.38154 8.0811C8.21025 7.40939 7.71346 7.20896 7.09889 7.18555Z" fill="#D97B16"/>
</g>
<defs>
<clipPath id="clip0_46_601">
<rect width="40" height="25" fill="white"/>
</clipPath>
</defs>
</svg>
